<svg width="83" height="15" viewBox="0 0 83 15" fill="none" xmlns="http://www.w3.org/2000/svg">
<path fill-rule="evenodd" clip-rule="evenodd" d="M57.103 0H75.4585C77.0043 0 77.5648 0.160947 78.1299 0.46317C78.695 0.765394 79.1385 1.2089 79.4408 1.77401C79.743 2.33911 79.9039 2.89965 79.9039 4.44542V9.797C79.9039 11.3428 79.743 11.9033 79.4408 12.4684C79.1385 13.0335 78.695 13.477 78.1299 13.7792C77.5648 14.0815 77.0043 14.2424 75.4585 14.2424H57.103C55.5572 14.2424 54.9967 14.0815 54.4316 13.7792C53.8665 13.477 53.423 13.0335 53.1207 12.4684C52.8185 11.9033 52.6576 11.3428 52.6576 9.797V4.44542C52.6576 2.89965 52.8185 2.33911 53.1207 1.77401C53.423 1.2089 53.8665 0.765394 54.4316 0.46317C54.9967 0.160947 55.5572 0 57.103 0ZM57.1029 1.23858C55.8805 1.23858 55.4538 1.32098 55.0155 1.55538C54.6662 1.74217 54.3995 2.00889 54.2127 2.35817C53.9783 2.79645 53.8959 3.22318 53.8959 4.44552V9.7971C53.8959 11.0194 53.9783 11.4462 54.2127 11.8845C54.3995 12.2337 54.6662 12.5005 55.0155 12.6872C55.4538 12.9216 55.8805 13.004 57.1029 13.004H75.4584C76.6807 13.004 77.1075 12.9216 77.5457 12.6872C77.895 12.5005 78.1617 12.2337 78.3485 11.8845C78.5829 11.4462 78.6653 11.0194 78.6653 9.7971V4.44552C78.6653 3.22318 78.5829 2.79645 78.3485 2.35817C78.1617 2.00889 77.895 1.74217 77.5457 1.55538C77.1075 1.32098 76.6807 1.23858 75.4584 1.23858H57.1029ZM83.0004 7.04711C83.0004 8.57856 81.1427 9.52405 81.1427 9.52405V4.57017C81.1427 4.57017 83.0004 5.51565 83.0004 7.04711Z" fill="white"/>
<rect x="55.135" y="2.37381" width="22.2925" height="9.49494" rx="1.98155" fill="white"/>
<path fill-rule="evenodd" clip-rule="evenodd" d="M17.5135 1.74152C17.4849 1.88508 17.4849 2.05772 17.4849 2.40299V11.9392C17.4849 12.2845 17.4849 12.4571 17.5135 12.6007C17.6307 13.1902 18.0916 13.6511 18.6811 13.7684C18.8247 13.7969 18.9973 13.7969 19.3426 13.7969C19.6879 13.7969 19.8605 13.7969 20.0041 13.7684C20.5936 13.6511 21.0545 13.1902 21.1718 12.6007C21.2003 12.4571 21.2003 12.2845 21.2003 11.9392V2.40299C21.2003 2.05772 21.2003 1.88508 21.1718 1.74152C21.0545 1.15197 20.5936 0.691112 20.0041 0.573844C19.8605 0.545288 19.6879 0.545288 19.3426 0.545288C18.9973 0.545288 18.8247 0.545288 18.6811 0.573844C18.0916 0.691112 17.6307 1.15197 17.5135 1.74152ZM11.664 5.37509C11.664 5.02982 11.664 4.85718 11.6925 4.71361C11.8098 4.12407 12.2706 3.66321 12.8602 3.54594C13.0037 3.51739 13.1764 3.51739 13.5217 3.51739C13.8669 3.51739 14.0396 3.51739 14.1831 3.54594C14.7727 3.66321 15.2335 4.12407 15.3508 4.71361C15.3794 4.85718 15.3794 5.02981 15.3794 5.37509V11.939C15.3794 12.2843 15.3794 12.4569 15.3508 12.6005C15.2335 13.19 14.7727 13.6509 14.1831 13.7681C14.0396 13.7967 13.8669 13.7967 13.5217 13.7967C13.1764 13.7967 13.0037 13.7967 12.8602 13.7681C12.2706 13.6509 11.8098 13.19 11.6925 12.6005C11.664 12.4569 11.664 12.2843 11.664 11.939V5.37509ZM5.99584 7.56216C5.96729 7.70572 5.96729 7.87836 5.96729 8.22364V11.9391C5.96729 12.2843 5.96729 12.457 5.99584 12.6005C6.11311 13.1901 6.57397 13.6509 7.16352 13.7682C7.30708 13.7968 7.47972 13.7968 7.82499 13.7968C8.17027 13.7968 8.34291 13.7968 8.48647 13.7682C9.07602 13.6509 9.53688 13.1901 9.65414 12.6005C9.6827 12.457 9.6827 12.2843 9.6827 11.939V8.22364C9.6827 7.87836 9.6827 7.70572 9.65414 7.56216C9.53688 6.97261 9.07602 6.51176 8.48647 6.39449C8.34291 6.36593 8.17027 6.36593 7.82499 6.36593C7.47972 6.36593 7.30708 6.36593 7.16352 6.39449C6.57397 6.51176 6.11311 6.97261 5.99584 7.56216ZM0.051017 10.039C0.0224609 10.1826 0.0224609 10.3552 0.0224609 10.7005V11.9389C0.0224609 12.2842 0.0224609 12.4569 0.051017 12.6004C0.168285 13.19 0.629142 13.6508 1.21869 13.7681C1.36225 13.7966 1.53489 13.7966 1.88017 13.7966C2.22544 13.7966 2.39808 13.7966 2.54164 13.7681C3.13119 13.6508 3.59205 13.19 3.70932 12.6004C3.73787 12.4569 3.73787 12.2842 3.73787 11.9389V10.7005C3.73787 10.3552 3.73787 10.1826 3.70932 10.039C3.59205 9.44945 3.13119 8.98859 2.54164 8.87132C2.39808 8.84277 2.22544 8.84277 1.88017 8.84277C1.53489 8.84277 1.36225 8.84277 1.21869 8.87132C0.629142 8.98859 0.168285 9.44945 0.051017 10.039Z" fill="white"/>
<path fill-rule="evenodd" clip-rule="evenodd" d="M36.9296 3.14122C39.6969 3.14134 42.3583 4.20463 44.3639 6.11133C44.5149 6.25853 44.7563 6.25667 44.905 6.10716L46.3487 4.65021C46.424 4.57438 46.466 4.47166 46.4653 4.36478C46.4647 4.25791 46.4215 4.15569 46.3453 4.08075C41.0814 -0.963927 32.777 -0.963927 27.5131 4.08075C27.4369 4.15563 27.3936 4.25782 27.3929 4.3647C27.3922 4.47157 27.4341 4.57432 27.5094 4.65021L28.9534 6.10716C29.1021 6.2569 29.3436 6.25876 29.4946 6.11133C31.5004 4.2045 34.1621 3.14121 36.9296 3.14122ZM36.9301 7.88152C38.4505 7.88142 39.9167 8.44656 41.0437 9.4671C41.1961 9.61194 41.4362 9.6088 41.5848 9.46002L43.0268 8.00307C43.1027 7.92665 43.1449 7.82297 43.1438 7.71524C43.1427 7.60752 43.0985 7.50472 43.021 7.42986C39.589 4.2374 34.2741 4.2374 30.8421 7.42986C30.7645 7.50472 30.7203 7.60757 30.7193 7.71533C30.7183 7.82309 30.7606 7.92676 30.8367 8.00307L32.2782 9.46002C32.4268 9.6088 32.6669 9.61194 32.8194 9.4671C33.9456 8.44723 35.4106 7.88215 36.9301 7.88152ZM39.7007 11.3583C39.7778 11.2826 39.8203 11.1784 39.8181 11.0704C39.8159 10.9624 39.7692 10.86 39.6891 10.7875C38.0961 9.44022 35.7631 9.44022 34.1701 10.7875C34.0899 10.86 34.0431 10.9623 34.0409 11.0703C34.0386 11.1783 34.081 11.2825 34.158 11.3583L36.6528 13.8755C36.7259 13.9494 36.8256 13.9911 36.9296 13.9911C37.0336 13.9911 37.1333 13.9494 37.2064 13.8755L39.7007 11.3583Z" fill="white"/>
</svg>
